<svg xmlns="http://www.w3.org/2000/svg" viewBox="0 0 240 320" fill="none" stroke="#191919" stroke-width="2.5" stroke-linecap="round" stroke-linejoin="round">
  <title>Il libro baffuto</title>
  <desc>Libro allampanato con occhiali dalle lenti vuote, baffi, cravatta rossa, scarpe appuntite e bastone. Disegno originale basato sul riferimento libro-baffi-v4.</desc>
  <g id="figura">
    <g id="gambe" stroke-width="5.5">
      <g id="gamba-sinistra">
        <path d="M107 191 L100 242"/>
        <g id="ginocchio-sinistro">
          <path d="M100 242 L94 293"/>
          <path d="M88 290 L101 291 L104 299 L124 306 L88 304 L85 300 Z" fill="#191919" stroke-width="2"/>
          <path d="M97 293 L101 289 M96 294 L92 289" stroke-width="1.4"/>
        </g>
      </g>
      <g id="gamba-destra">
        <path d="M142 190 L147 242"/>
        <g id="ginocchio-destro">
          <path d="M147 242 L145 294"/>
          <path d="M140 290 L151 292 L154 299 L178 305 L141 305 L138 302 Z" fill="#191919" stroke-width="2"/>
          <path d="M147 294 L151 290 M146 294 L142 289" stroke-width="1.4"/>
        </g>
      </g>
    </g>
    <g id="braccia" stroke-width="4">
      <g id="braccio-sinistro">
        <path d="M86 133 L65 160 L79 175"/>
        <path d="M77 171 L83 172 L88 177 M78 173 L83 179 M76 174 L80 180" stroke-width="1.8"/>
      </g>
      <g id="braccio-destro">
        <path d="M166 128 L181 156 L186 176"/>
        <g id="bastone" stroke-width="2.8"><path d="M190 181 L193 302"/><path d="M191 301 L195 304 L191 305 Z" fill="#191919"/></g>
        <path d="M185 172 L192 175 L197 181 L196 188 M192 180 L194 187 M189 180 L191 188 M187 181 L188 187 L184 183 L183 178 Z" fill="#FAF9F6" stroke-width="1.8"/>
      </g>
    </g>
    <g id="corpo">
      <path d="M75 43 Q105 32 167 28 Q173 29 174 35 L166 190 L96 209 Q85 207 76 201 Q88 124 75 43 Z" fill="#FAF9F6"/>
      <path d="M91 43 Q99 119 96 209 M75 43 L91 45 L174 31"/>
      <path d="M80 73 Q87 77 92 75 M80 78 Q86 81 92 79 M80 177 Q87 183 96 182 M80 182 Q87 188 96 187" stroke-width="1.6"/>
    </g>
    <g id="pagine" fill="#FAF9F6" stroke-width="2">
      <path d="M75 43 Q102 23 149 9 L140 24 Q123 31 84 45 Z"/>
      <path d="M83 43 Q114 28 163 18 L157 30 L91 46 Z"/>
      <path d="M91 43 Q122 34 169 27 L169 32 L92 46 Z"/>
      <path d="M101 37 L139 23 M107 41 L152 29" stroke-width="1"/>
    </g>
    <g id="occhiali" stroke-width="2.2">
      <path d="M102 110 L115 109 M139 108 Q143 103 148 106 M171 104 L178 102"/>
      <ellipse cx="126" cy="109" rx="11" ry="13"/>
      <ellipse cx="159" cy="105" rx="11" ry="13"/>
    </g>
    <g id="baffi" fill="#191919" stroke-width="1">
      <path d="M143 135 Q135 122 126 137 Q118 149 107 142 Q117 158 134 145 L143 139 Q157 152 173 137 Q162 144 155 134 Q149 127 143 135 Z"/>
    </g>
    <g id="cravatta" fill="#D93632" stroke-width="1.5">
      <path d="M139 157 L145 160 L141 168 L135 165 Z"/>
      <path d="M138 166 L141 168 L149 191 L139 200 L132 191 Z"/>
    </g>
  </g>
</svg>